' Generated by UML Generator
' Encoded: lHTTRzisyDs_Wi1U5CGAzZW8Mr4tQDrWSPlL1ROYo0CjCH8NYTH8ogxRrRzzToGbKh83D0DI88cFz_rzpajjg39TKy_q0nSjLRGXUKsrNXYZ-AOpx2gNOis_CFBphE858pbNUSrcCyj5Nacg2l9rHiYvuJNJ6Va87-Gt8jZEWhU_tC4Fq0yqDtpBBcKjLKRi1s3J54MjbkGiW2qrLKRMu88eBPfzRgKoIzgmv1wq2W06UaQsaXV8nPllu4gvu8RJ6c9wtRHclrGSR0TooSmDPpbuMh2apOXzdFLwa2DNZ1fcyM-KR2nZ3dzwdZdvd14kp9pixUUPLp8sxeCEtji4WM9CcquKgzcM2lFHfVLlkgKN7UJuuffhyojYNqIodNZBowg6NxEewrWhX8FC2wNe7l6sA7UtTvws25L1wb0N85qpOvY2oEe-Yf028B_hcWsGbTnDoD_wvh2jWBrnSFb0Q3z0lI32lGs4uwhXkyNKXGmUgZvGLcHa8sNDg42yLBpaWjOdEmnTIS36DTtBpgoee2LJs5a_jHJiNahe7C64ISgCB1LjAvxhA8aQUaBg8HLp4aKTyQ2LTzXzN9peJkqRAswgY0O5z65PSH_PcETz7ADbiz2utAD4n4L5ujkGFII5_27nWzmXqXK24I0vHWmHnjs014ZFNsDMm7oQO6pqmpGCVN9PCQtVmEhntRB1oSZSRi5t2PHhAI5jImyDTGsY2LMbxfswlJlpDeSfwxMTCr4iVGGsQOCRlVBJJhZrXV6x6NfqfHqsDSqVVWSlnioxYXjsX7PXzAQJsAeDeP6TPZSAeeI2uM2i4F5wo-BUmt5SqtksablO77Qb1oF05bO6CclUT3Ni6UHUY09Ic3-WjDaxKISs9v2eGKFeavHh3E9AM3aSYI7uCLy3wbt57zNQDssEgbRWqgGbxxaeq9YEzpDS7wg6DjR7TLp1HBkJz1Ki6vv_8msWfWqo5Ll_qr75_eJXRvboyYDKabUyBZ1KlojiVGhfLign6w-uhdmpdJiu6P-5EJ7xDZeQerIYr1RkHB4shDKmwcrd-huuVGs2PKoPiulGCrjrOxQ4H1MiSAVhQSuABADtry8_AaqtTEVx1A7djqetsYXO6SIRnzbu_3p6veSpU2FA69TFDWzluAnbv0e_xAca6ZrinvVIhfo36yqd1XqKJYOLRbDFE7sydjvL_kOUVPMAlzY0j__h4jaC8QfFbJzsatl9zNlX3iYH5ttiGpVzqJ7csyc2FwgBFqZvuCmYzFnMtJT-cQRkWhddnSKBVzJjTxuqxP_HQKUakwOJv73KXmCSM4SePz2jrJJzjxVXCUY34xBxBsAmxuZiDaxCu321nQw6YC6-8x8TtV1sjO_u7I8ms295TFiEv9Tm5E5_iFy0
' URL: http://www.plantuml.com/plantuml/uml/lHTTRzisyDs_Wi1U5CGAzZW8Mr4tQDrWSPlL1ROYo0CjCH8NYTH8ogxRrRzzToGbKh83D0DI88cFz_rzpajjg39TKy_q0nSjLRGXUKsrNXYZ-AOpx2gNOis_CFBphE858pbNUSrcCyj5Nacg2l9rHiYvuJNJ6Va87-Gt8jZEWhU_tC4Fq0yqDtpBBcKjLKRi1s3J54MjbkGiW2qrLKRMu88eBPfzRgKoIzgmv1wq2W06UaQsaXV8nPllu4gvu8RJ6c9wtRHclrGSR0TooSmDPpbuMh2apOXzdFLwa2DNZ1fcyM-KR2nZ3dzwdZdvd14kp9pixUUPLp8sxeCEtji4WM9CcquKgzcM2lFHfVLlkgKN7UJuuffhyojYNqIodNZBowg6NxEewrWhX8FC2wNe7l6sA7UtTvws25L1wb0N85qpOvY2oEe-Yf028B_hcWsGbTnDoD_wvh2jWBrnSFb0Q3z0lI32lGs4uwhXkyNKXGmUgZvGLcHa8sNDg42yLBpaWjOdEmnTIS36DTtBpgoee2LJs5a_jHJiNahe7C64ISgCB1LjAvxhA8aQUaBg8HLp4aKTyQ2LTzXzN9peJkqRAswgY0O5z65PSH_PcETz7ADbiz2utAD4n4L5ujkGFII5_27nWzmXqXK24I0vHWmHnjs014ZFNsDMm7oQO6pqmpGCVN9PCQtVmEhntRB1oSZSRi5t2PHhAI5jImyDTGsY2LMbxfswlJlpDeSfwxMTCr4iVGGsQOCRlVBJJhZrXV6x6NfqfHqsDSqVVWSlnioxYXjsX7PXzAQJsAeDeP6TPZSAeeI2uM2i4F5wo-BUmt5SqtksablO77Qb1oF05bO6CclUT3Ni6UHUY09Ic3-WjDaxKISs9v2eGKFeavHh3E9AM3aSYI7uCLy3wbt57zNQDssEgbRWqgGbxxaeq9YEzpDS7wg6DjR7TLp1HBkJz1Ki6vv_8msWfWqo5Ll_qr75_eJXRvboyYDKabUyBZ1KlojiVGhfLign6w-uhdmpdJiu6P-5EJ7xDZeQerIYr1RkHB4shDKmwcrd-huuVGs2PKoPiulGCrjrOxQ4H1MiSAVhQSuABADtry8_AaqtTEVx1A7djqetsYXO6SIRnzbu_3p6veSpU2FA69TFDWzluAnbv0e_xAca6ZrinvVIhfo36yqd1XqKJYOLRbDFE7sydjvL_kOUVPMAlzY0j__h4jaC8QfFbJzsatl9zNlX3iYH5ttiGpVzqJ7csyc2FwgBFqZvuCmYzFnMtJT-cQRkWhddnSKBVzJjTxuqxP_HQKUakwOJv73KXmCSM4SePz2jrJJzjxVXCUY34xBxBsAmxuZiDaxCu321nQw6YC6-8x8TtV1sjO_u7I8ms295TFiEv9Tm5E5_iFy0
' Generated on: 2025-12-09T02:30:27.358108400

@startuml
skinparam classAttributeIconSize 0
hide circle

class Board {
  +tiles: Tile = new Tile[8][8]
  ~activeColor: Color
  --
  +Board()
  +Board(path: String)
  +exportGame(filename: String): void
  +importGame(filename: String): void
  -initializeEmptyGrid(): void
  -getPieceCode(p: Piece): String
  -createPieceFromCode(code: String, x: int, y: int): Piece
  -initializeBoard(): void
  +activateTiles(relevantTiles: java.util.List<Tile>): void
  +unHighlightAll(): void
  +getTileArray(): Tile[][]
  +getActiveColor(): Color
  -getLetter(col: int): String
  -getNumber(row: int): String
}

class Tile {
  ~x: int
  ~y: int
  ~row: int
  ~col: int
  ~name: String
  ~piece: Piece
  ~highlighted: boolean
  ~originalColor: Color
  --
  +Tile(l: LayoutManager)
  #paintComponent(g: Graphics): void
  +setPos(col: int, row: int): void
  +setTileName(in: String): void
  +setPiece(p: Piece): void
  +setHiglighted(in: boolean): void
  +setOriginalColor(in: Color): void
  +getoriginalColor(): Color
  +getHighlighted(): boolean
  +getRow(): int
  +getCol(): int
  +getTileName(): String
  +getPosX(): int
  +getPosY(): int
  +getPiece(): Piece
}

class ChessFrame {
  ~board: Board
  ~gameLoop: GameLoop
  --
  +ChessFrame(args: String[])
  +getBoard(): Board
  +endGame(): void
}

class GameLoop {
  ~board: Board
  ~activeTile: Tile
  ~activeColor: Color
  ~blackKingTile: Tile
  ~whiteKingTile: Tile
  --
  +GameLoop(board: Board)
  +mousePressed(me: MouseEvent): void
  -getSafeMoves(startTile: Tile): List<Tile>
  -simulateMoveAndCheckSafety(start: Tile, end: Tile): boolean
  -isKingInCheck(color: Color): boolean
  -movePiece(start: Tile, end: Tile): void
  +checkMate(): boolean
  +findKings(): void
  -clearHighlights(): void
}

class Main {
  +{static} main(args: String[]): void
}

class SquareWrapper {
  +SquareWrapper(child: Component)
  +doLayout(): void
}

class Bishop {
  +Bishop(x: int, y: int, type: String, color: Color)
  +validSteps(input: Board): java.util.List<Tile>
}

class King {
  +King(x: int, y: int, type: String, color: Color)
  +validSteps(input: Board): java.util.List<Tile>
  +getGuardedTiles(input: Board): java.util.List<Tile>
}

class Knight {
  +Knight(x: int, y: int, type: String, color: Color)
  +validSteps(input: Board): java.util.List<Tile>
}

class Pawn {
  +Pawn(x: int, y: int, type: String, color: Color)
  +validSteps(input: Board): java.util.List<Tile>
}

abstract class Piece {
  ~x: int
  ~y: int
  ~type: String
  ~piecePng: String
  ~color: Color
  ~image: Image
  ~hasStepped: boolean
  --
  ~Piece(x: int, y: int, type: String, color: Color)
  +hasStepped(): boolean
  +setStepped(in: boolean): void
  +validSteps(input: Board): java.util.List<Tile>
  +setPos(x: int, y: int): void
  +getType(): String
  +getPosX(): int
  +getPosY(): int
  +getImage(): Image
  +getColor(): Color
  +isOnBoard(x: int, y: int): boolean
}

class Queen {
  +Queen(x: int, y: int, type: String, color: Color)
  +validSteps(input: Board): java.util.List<Tile>
}

class Rook {
  +Rook(x: int, y: int, type: String, color: Color)
  +validSteps(input: Board): java.util.List<Tile>
}

Board o-- Tile
Board ..> Piece
Tile --> Piece
ChessFrame --> Board
ChessFrame --> GameLoop
GameLoop --> Board
GameLoop --> Tile
Bishop --|> Piece
Bishop ..> Board
King --|> Piece
King ..> Board
Knight --|> Piece
Knight ..> Board
Pawn --|> Piece
Pawn ..> Board
Piece ..> Board
Queen --|> Piece
Queen ..> Board
Rook --|> Piece
Rook ..> Board
@enduml